<svg data-name="Layer 1" xmlns="http://www.w3.org/2000/svg" width="813.41058" height="656.33681" viewBox="0 0 813.41058 656.33681" xmlns:xlink="http://www.w3.org/1999/xlink"><path d="M981.95551,700.93746c20.71891-19.50448,31.40172-48.72315,20.27081-73.43931-16.20392,24.871-42.8797,44.45843-73.80763,54.19517-12.046,3.7924-25.89865,6.9208-32.45066,16.48645-4.077,5.9519-4.374,13.406-2.5372,20.14552,1.83708,6.73976,5.61923,12.93919,9.36388,19.05382l.0214,1.72889C932.13512,731.64907,961.2366,720.442,981.95551,700.93746Z" transform="translate(-193.29471 -121.8316)" fill="#f2f2f2"/><path d="M1001.60331,627.6293c-3.49328,21.52419-14.92435,42.21824-32.40176,57.81848a51.44015,51.44015,0,0,1-12.76927,8.70714,33.52335,33.52335,0,0,1-15.2967,2.82647c-4.94544-.15744-9.9831-.816-14.88648.07366a18.15764,18.15764,0,0,0-11.9173,7.7407c-3.25081,4.78111-4.33029,10.29185-5.17036,15.71277-.93274,6.0189-1.79179,12.28349-5.75466,17.46107-.48016.62734.66839,1.23791,1.14782.61153,6.89471-9.00811,4.58791-20.52052,9.24-30.23508,2.17075-4.533,5.92709-8.52512,11.5426-9.894,4.91052-1.197,10.10607-.52171,15.11185-.32469a35.97817,35.97817,0,0,0,15.07541-2.27954,48.26232,48.26232,0,0,0,13.10749-8.24852,103.57951,103.57951,0,0,0,21.58561-25.54948,96.83454,96.83454,0,0,0,12.73213-34.39582c.12067-.74352-1.2265-.7634-1.34638-.02474Z" transform="translate(-193.29471 -121.8316)" fill="#fff"/><path d="M975.19045,680.63735a20.1353,20.1353,0,0,0,23.31025-1.48874c.61525-.52986-.30362-1.38534-.91968-.85477a18.64072,18.64072,0,0,1-21.68667,1.34633c-.69721-.44685-1.39713.55288-.7039.99718Z" transform="translate(-193.29471 -121.8316)" fill="#fff"/><path d="M943.631,697.34813a27.07545,27.07545,0,0,1,5.27236-21.54516c.47759-.62879-.6708-1.23956-1.14781-.61152a28.1524,28.1524,0,0,0-5.43392,22.42938c.14377.74376,1.45236.467,1.30937-.2727Z" transform="translate(-193.29471 -121.8316)" fill="#fff"/><path d="M994.90769,651.1858a9.15431,9.15431,0,0,1-5.87543-6.69973c-.13285-.745-1.44135-.46744-1.30937.27269a10.24884,10.24884,0,0,0,6.48089,7.42422.76077.76077,0,0,0,.92586-.19283.5453.5453,0,0,0-.22195-.80435Z" transform="translate(-193.29471 -121.8316)" fill="#fff"/><path d="M903.9775,599.39555c.06772.46723.13545.93445.19485,1.40842a101.68483,101.68483,0,0,1,.84875,18.948c-.01488.48939-.03845.98516-.06949,1.47315a110.23435,110.23435,0,0,1-12.31786,44.0915,115.86364,115.86364,0,0,1-10.03845,15.95591c-5.25817,7.02893-11.60313,14.28663-13.81626,22.18174a18.14655,18.14655,0,0,0-.54717,2.49618l32.15477,33.0461c.11645.04325.22464.0932.34145.13681l1.2144,1.37042c.21745-.25058.43678-.51454.65423-.76513.12684-.14491.24651-.29717.37334-.44208.08229-.09893.16427-.19827.245-.28347.02753-.03284.0547-.066.0736-.09255.08076-.08519.14537-.17178.21745-.25059q1.846-2.20878,3.66277-4.4478c.00869-.00638.00869-.00638.01021-.02012,9.195-11.39393,17.37581-23.55484,23.17194-36.40789.17423-.38675.35751-.77952.51706-1.18136a103.13109,103.13109,0,0,0,6.055-17.87825,88.68742,88.68742,0,0,0,1.76458-10.09938,73.20123,73.20123,0,0,0-1.77767-26.20331c-4.32949-17.14233-14.92144-32.89091-31.64657-42.32633C904.83543,599.86443,904.41424,599.63028,903.9775,599.39555Z" transform="translate(-193.29471 -121.8316)" fill="#f2f2f2"/><path d="M903.567,599.82439c12.12757,19.013,17.34194,41.51512,14.19853,63.11264a40.42828,40.42828,0,0,1-4.1613,13.63117A27.2882,27.2882,0,0,1,903.34948,686.826c-4.05778,2.461-8.53648,4.57013-11.835,7.84522a14.4154,14.4154,0,0,0-4.15082,12.41389c.71783,5.51779,3.675,10.48244,6.76107,15.25014,3.42649,5.29362,7.08209,10.74487,7.50614,16.95167.05138.752,1.39157.63881,1.34027-.1121-.73778-10.79876-10.558-18.7842-13.576-28.974-1.40824-4.75475-1.17565-9.907,2.35939-13.93715,3.09124-3.52418,7.70758-5.70256,11.841-8.16354a29.57115,29.57115,0,0,0,10.45709-9.70531,37.7441,37.7441,0,0,0,4.74919-13.44189,88.27749,88.27749,0,0,0-.47146-31.69023,97.48343,97.48343,0,0,0-13.67119-34.12271c-.41893-.65677-1.50835.032-1.09216.68447Z" transform="translate(-193.29471 -121.8316)" fill="#fff"/><path d="M919.21359,655.96367c8.80671-.08024,16.32122-5.82013,17.5802-13.38116.124-.74488-1.2025-.94731-1.32669-.20144-1.17945,7.08337-8.15017,12.34322-16.38255,12.41823-.86636.00789-.73237,1.17221.129,1.16437Z" transform="translate(-193.29471 -121.8316)" fill="#fff"/><path d="M905.5961,685.81353a28.74711,28.74711,0,0,1-10.72159-19.96033c-.05444-.75186-1.39465-.63885-1.34027.1121a29.92164,29.92164,0,0,0,11.20539,20.75083c.63024.51865,1.48329-.38677.85647-.9026Z" transform="translate(-193.29471 -121.8316)" fill="#fff"/><path d="M914.54611,622.1351a11.29456,11.29456,0,0,1-9.33427-2.2762c-.62235-.52534-1.47478.38068-.85647.9026a12.656,12.656,0,0,0,10.31978,2.538c.35753-.0699.6395-.295.60561-.63823a.65813.65813,0,0,0-.73465-.52614Z" transform="translate(-193.29471 -121.8316)" fill="#fff"/><circle cx="661.93307" cy="199.63499" r="27.56693" fill="#a0616a"/><path d="M976.02469,448.82427a89.753,89.753,0,0,0-15.75-24.57,60.65143,60.65143,0,0,1,9.21,29.41,46.47394,46.47394,0,0,1-6.29,3.29,60.27,60.27,0,0,1-20.61,4.63,89.93171,89.93171,0,0,0-19.31-34.33,60.79633,60.79633,0,0,1,9.26,34.18,95.19618,95.19618,0,0,1-23.19-4.97c-11.25-3.87-22.17-9.65-29.95-18.64-8.42-9.73-12.56994-22.57-13.91-35.37-1.34-12.79-.08-25.7,1.19-38.5.6-6.1-4.48-13.12-3.88-19.22h.4c2.67-3.66,5.39-7.41,6.69995-11.75,1.30005-4.33.96-9.44-2.03-12.85a13.96154,13.96154,0,0,0-6.13-3.8c-.22-.28-.46-.55-.71-.82a57.01112,57.01112,0,0,0-15.75-11.78c4.25,3.21,7.09,6.84,8.41,10.59q-5.52-1.215-11.04-2.42a53.17333,53.17333,0,0,0-3.88-3.72,40.83338,40.83338,0,0,0-4.97-3.45,15.85608,15.85608,0,0,1,4.29,6.12c-4.73-1.19-9.46-2.98-11.92-7.05-4.08-6.73.77-15.81,7.54-19.83a26.97676,26.97676,0,0,1,31.33,3.45c9.79-7.21,23.73-7.09,34.62-1.7a50.62085,50.62085,0,0,1,18.06,15.71,70.63757,70.63757,0,0,0-8.18-.57,25.08666,25.08666,0,0,1,10.71,4.24,73.77094,73.77094,0,0,1,3.88,6.79q1.15493,2.295,2.18,4.65c4.19,9.54,6.92,19.7,9.75,29.74,3.3,11.7,6.84,23.48,13.02,33.95a76.25235,76.25235,0,0,0,42.05,33.55C992.5947,427.01427,986.13474,439.95428,976.02469,448.82427Z" transform="translate(-193.29471 -121.8316)" fill="#2f2e41"/><polygon points="718.758 625.675 708.752 630.333 686.022 593.953 700.791 587.078 718.758 625.675" fill="#a0616a"/><path d="M925.40563,762.38506l-7.176,3.34066-4.43487-6.17875-.12658,8.30223-19.03259,8.86023a4.71923,4.71923,0,0,1-6.06178-6.66729l10.31226-17.5724-3.18857-6.84933,16.43075-6.488Z" transform="translate(-193.29471 -121.8316)" fill="#2f2e41"/><polygon points="618.304 636.194 607.266 636.194 602.013 593.621 618.304 593.621 618.304 636.194" fill="#a0616a"/><path d="M817.42413,777.15019H809.5086l-1.41289-7.47321-3.61861,7.47321H783.48321a4.71924,4.71924,0,0,1-2.68162-8.60273l16.76509-11.57857v-7.55516l17.634,1.05251Z" transform="translate(-193.29471 -121.8316)" fill="#2f2e41"/><polygon points="669.286 313.604 660.141 341.507 657.118 364.126 608.54 349.128 613.033 298.656 623.137 288.66 669.286 313.604" fill="#a0616a"/><ellipse cx="389.03019" cy="168.85825" rx="8.8567" ry="10.19466" transform="translate(-160.34107 277.3896) rotate(-56.36398)" fill="#fd6584"/><ellipse cx="487.5619" cy="508.17451" rx="8.8567" ry="10.19466" transform="translate(-398.89317 510.78831) rotate(-56.36398)" fill="#e6e6e6"/><ellipse cx="211.5619" cy="217.17451" rx="8.8567" ry="10.19466" transform="translate(-279.73381 151.18742) rotate(-56.36398)" fill="#e6e6e6"/><path d="M567.91678,464.23431H234.67264a41.425,41.425,0,0,1-41.37793-41.37793V279.61224a41.42473,41.42473,0,0,1,41.37793-41.37793c106.336-29.45983,217.86191-26.69992,333.24414,0a41.42473,41.42473,0,0,1,41.37793,41.37793V422.85638A41.425,41.425,0,0,1,567.91678,464.23431Z" transform="translate(-193.29471 -121.8316)" fill="#f2f2f2" style="isolation:isolate"/><path d="M228.79471,427.73431a.99974.99974,0,0,1-1-1v-151a1,1,0,0,1,2,0v151A.99974.99974,0,0,1,228.79471,427.73431Z" transform="translate(-193.29471 -121.8316)" fill="#fff" style="isolation:isolate"/><path d="M575.79471,427.73431a.99974.99974,0,0,0,1-1v-151a1,1,0,1,0-2,0v151A.99974.99974,0,0,0,575.79471,427.73431Z" transform="translate(-193.29471 -121.8316)" fill="#fff" style="isolation:isolate"/><path d="M509.79471,307.73431h-.00342a1.00006,1.00006,0,0,1-.99658-1.00342l.5-153a1.00026,1.00026,0,0,1,1-.99658h.00342a1.00005,1.00005,0,0,1,.99658,1.00341l-.5,153A1.00027,1.00027,0,0,1,509.79471,307.73431Z" transform="translate(-193.29471 -121.8316)" fill="#3f3d56"/><path d="M381.79471,526.73431h-.00342a1,1,0,0,1-.99658-1.00293l.5-149.00049a1,1,0,0,1,1-.99658h.00342a1.00005,1.00005,0,0,1,.99658,1.00341l-.5,148.99952A1.00006,1.00006,0,0,1,381.79471,526.73431Z" transform="translate(-193.29471 -121.8316)" fill="#3f3d56"/><path d="M286.79471,335.73431h-.00342a1.00006,1.00006,0,0,1-.99658-1.00342l.5-151a1.00026,1.00026,0,0,1,1-.99658h.00342a1.00005,1.00005,0,0,1,.99658,1.00341l-.5,151A1.00027,1.00027,0,0,1,286.79471,335.73431Z" transform="translate(-193.29471 -121.8316)" fill="#3f3d56"/><path d="M245.5038,375.93359c1.92584-10.397,13.74682-15.19161,23.32517-14.37728,13.68821,1.16375,25.11219,10.1758,37.85195,14.42438,6.15636,2.05309,12.77992,3.17992,19.23132,1.9985a29.28734,29.28734,0,0,0,13.66407-6.8984c7.40721-6.33082,12.415-14.96514,19.828-21.28913a24.68488,24.68488,0,0,1,14.29122-6.23985c6.54074-.43461,12.94606,1.78193,18.6792,4.753,11.38949,5.90225,20.71336,15.29367,32.844,19.849A33.59161,33.59161,0,0,0,442.722,369.962a45.57214,45.57214,0,0,0,16.453-6.82844c10.44473-6.59859,19.05282-15.75508,30.03489-21.54211,5.4003-2.8457,11.39991-5.02243,17.569-5.06528a23.278,23.278,0,0,1,16.01339,6.41121c8.31749,7.56075,14.87521,19.496,27.57876,19.70558a13.78387,13.78387,0,0,0,7.50969-2.0612c1.639-1.01353.13413-3.60969-1.51415-2.59041-5.17823,3.20217-11.41436,1.18128-16.13371-1.924-5.02638-3.30731-8.59462-8.36239-12.69643-12.66918-4.07511-4.27874-8.82971-7.88222-14.69157-9.21713a31.95494,31.95494,0,0,0-17.50471,1.46268c-11.99983,4.18085-21.08348,12.787-31.04279,20.27445-9.81513,7.379-21.27472,13.76356-33.9384,10.69044-12.60957-3.06-22.17518-12.60854-33.08071-19.01788-10.54209-6.19574-23.46464-10.15206-34.81666-3.633-8.57791,4.926-14.00125,13.62573-20.5893,20.71254-3.25083,3.49693-6.876,6.74742-11.26734,8.73382-6.10165,2.76-12.99752,2.4382-19.3531.80218-13.25784-3.41279-24.44-12.33975-37.9403-15.01017-10.02056-1.98212-21.88114.51546-27.99724,9.37393a17.03188,17.03188,0,0,0-2.70338,6.56609c-.34958,1.88724,2.54112,2.69632,2.89284.79751Z" transform="translate(-193.29471 -121.8316)" fill="#3f3d56"/><circle cx="94" cy="247.65271" r="13" fill="#6c63ff"/><circle cx="187.5" cy="220.15271" r="13" fill="#6c63ff"/><circle cx="315.5" cy="211.15271" r="13" fill="#6c63ff"/><path d="M397.281,564.81731H368.76639a6.5142,6.5142,0,0,1-6.44483-5.59961,144.9801,144.9801,0,0,1,0-39.04687,6.51462,6.51462,0,0,1,6.31641-5.59961c9.28516-4.98633,18.96191-4.9873,28.76563,0a6.43565,6.43565,0,0,1,4.875,2.36231,6.587,6.587,0,0,1,1.35937,5.49023,87.66669,87.66669,0,0,0,0,34.54,6.587,6.587,0,0,1-1.35937,5.49023A6.43753,6.43753,0,0,1,397.281,564.81731Z" transform="translate(-193.29471 -121.8316)" fill="#6c63ff"/><path d="M528.281,175.09319H499.76639a6.5142,6.5142,0,0,1-6.44483-5.59961,144.98372,144.98372,0,0,1,0-39.04736,6.51459,6.51459,0,0,1,6.33545-5.59863c8.97168-4.02149,18.6333-4.021,28.72217-.00049a6.43876,6.43876,0,0,1,4.89942,2.36279,6.5872,6.5872,0,0,1,1.35937,5.49073,87.6593,87.6593,0,0,0,0,34.53857,6.58717,6.58717,0,0,1-1.35937,5.49072A6.43753,6.43753,0,0,1,528.281,175.09319Z" transform="translate(-193.29471 -121.8316)" fill="#6c63ff"/><path d="M301.00418,201.06243H272.48953a6.43756,6.43756,0,0,1-4.99756-2.36328,6.58718,6.58718,0,0,1-1.35937-5.49072,87.65935,87.65935,0,0,0,0-34.53858,6.58824,6.58824,0,0,1,1.35937-5.49121,6.43675,6.43675,0,0,1,4.87891-2.36181c8.66895-4.24561,18.335-4.24561,28.7334,0a6.51269,6.51269,0,0,1,6.34424,5.59863,144.9801,144.9801,0,0,1,0,39.04687A6.51339,6.51339,0,0,1,301.00418,201.06243Z" transform="translate(-193.29471 -121.8316)" fill="#ccc"/><path d="M525.29471,139.73431h-24a1.5,1.5,0,0,1,0-3h24a1.5,1.5,0,0,1,0,3Z" transform="translate(-193.29471 -121.8316)" fill="#fff"/><path d="M525.29471,151.73431h-24a1.5,1.5,0,0,1,0-3h24a1.5,1.5,0,0,1,0,3Z" transform="translate(-193.29471 -121.8316)" fill="#fff"/><path d="M525.29471,163.73431h-24a1.5,1.5,0,0,1,0-3h24a1.5,1.5,0,0,1,0,3Z" transform="translate(-193.29471 -121.8316)" fill="#fff"/><path d="M301.44038,163.73431h-24a1.5,1.5,0,0,1,0-3h24a1.5,1.5,0,0,1,0,3Z" transform="translate(-193.29471 -121.8316)" fill="#fff"/><path d="M301.44038,175.73431h-24a1.5,1.5,0,0,1,0-3h24a1.5,1.5,0,0,1,0,3Z" transform="translate(-193.29471 -121.8316)" fill="#fff"/><path d="M301.44038,187.73431h-24a1.5,1.5,0,0,1,0-3h24a1.5,1.5,0,0,1,0,3Z" transform="translate(-193.29471 -121.8316)" fill="#fff"/><path d="M395.44038,526.73431h-24a1.5,1.5,0,0,1,0-3h24a1.5,1.5,0,0,1,0,3Z" transform="translate(-193.29471 -121.8316)" fill="#fff"/><path d="M395.44038,538.73431h-24a1.5,1.5,0,0,1,0-3h24a1.5,1.5,0,0,1,0,3Z" transform="translate(-193.29471 -121.8316)" fill="#fff"/><path d="M395.44038,550.73431h-24a1.5,1.5,0,0,1,0-3h24a1.5,1.5,0,0,1,0,3Z" transform="translate(-193.29471 -121.8316)" fill="#fff"/><path d="M867.31626,481.44387,800.5355,466.33871l-24.74079,57.3956-7,117,18.23922,95h36.54818l-16.7874-95,4-72,18.74016,86.46582,49.65664,71.73658,22.91115-19.789-39.308-67.41338s16.45669-121.02363-1-142Z" transform="translate(-193.29471 -121.8316)" fill="#2f2e41"/><path d="M827.46723,367.46841l5.3503-2.00911,6.74666-10.909,24.03209,1.96371,5.84122,11.69711,14.0716,10.74612-6.15377,32.40949-9.56062,39.36755-64-8,.06765-29.63522s-11.56511-23.4137,7.11654-32.187Z" transform="translate(-193.29471 -121.8316)" fill="#e6e6e6"/><path d="M728.81756,470.26541a9.15747,9.15747,0,0,0,12.37685-6.63232l71.3595-43.17938-13.04325-15.04889-66.04267,47.176a9.20709,9.20709,0,0,0-4.65043,17.68462Z" transform="translate(-193.29471 -121.8316)" fill="#a0616a"/><path d="M836.332,399.978s3.41025,3.43124-5.1467,9.0733c-6.8505,4.51689-37.40675,26.838-48.23844,30.36855a7.194,7.194,0,0,1-4.7951,7.40223L768.34434,425.27c2.12292-4.927,5.51858-3.78617,7.30525-2.66905l11.84479-8.90791,29.08587-29.044,17.33065,12.80492Z" transform="translate(-193.29471 -121.8316)" fill="#e6e6e6"/><path d="M726.96943,473.75944H698.45478a6.43756,6.43756,0,0,1-4.99756-2.36328,6.58718,6.58718,0,0,1-1.35937-5.49072,87.65935,87.65935,0,0,0,0-34.53858,6.58824,6.58824,0,0,1,1.35937-5.49121,6.43676,6.43676,0,0,1,4.87891-2.36182c8.66895-4.2456,18.335-4.2456,28.7334,0a6.51271,6.51271,0,0,1,6.34424,5.59864,144.9801,144.9801,0,0,1,0,39.04687A6.51341,6.51341,0,0,1,726.96943,473.75944Z" transform="translate(-193.29471 -121.8316)" fill="#6c63ff"/><path d="M727.40563,436.43131h-24a1.5,1.5,0,0,1,0-3h24a1.5,1.5,0,0,1,0,3Z" transform="translate(-193.29471 -121.8316)" fill="#fff"/><path d="M727.40563,448.43131h-24a1.5,1.5,0,0,1,0-3h24a1.5,1.5,0,0,1,0,3Z" transform="translate(-193.29471 -121.8316)" fill="#fff"/><path d="M727.40563,460.43131h-24a1.5,1.5,0,0,1,0-3h24a1.5,1.5,0,0,1,0,3Z" transform="translate(-193.29471 -121.8316)" fill="#fff"/><path d="M864.96943,559.75944H836.45478a6.43756,6.43756,0,0,1-4.99756-2.36328,6.58718,6.58718,0,0,1-1.35937-5.49072,87.65935,87.65935,0,0,0,0-34.53858,6.58824,6.58824,0,0,1,1.35937-5.49121,6.43676,6.43676,0,0,1,4.87891-2.36182c8.66895-4.2456,18.335-4.2456,28.7334,0a6.51271,6.51271,0,0,1,6.34424,5.59864,144.9801,144.9801,0,0,1,0,39.04687A6.51341,6.51341,0,0,1,864.96943,559.75944Z" transform="translate(-193.29471 -121.8316)" fill="#ccc"/><path d="M865.40563,522.43131h-24a1.5,1.5,0,0,1,0-3h24a1.5,1.5,0,0,1,0,3Z" transform="translate(-193.29471 -121.8316)" fill="#fff"/><path d="M865.40563,534.43131h-24a1.5,1.5,0,0,1,0-3h24a1.5,1.5,0,0,1,0,3Z" transform="translate(-193.29471 -121.8316)" fill="#fff"/><path d="M865.40563,546.43131h-24a1.5,1.5,0,0,1,0-3h24a1.5,1.5,0,0,1,0,3Z" transform="translate(-193.29471 -121.8316)" fill="#fff"/><path d="M852.31012,516.82089a9.15748,9.15748,0,0,0,4.5012-13.30088l22.57515-80.29321-19.80687-2.06972-15.96246,79.57641a9.20709,9.20709,0,0,0,8.693,16.0874Z" transform="translate(-193.29471 -121.8316)" fill="#a0616a"/><path d="M882.72613,379.15031s4.83456.17369,2.44484,10.14081c-1.91316,7.97944-8.9392,58.03592-14.43261,68.01653a7.194,7.194,0,0,1,1.55931,8.6807l-21.88983-9.02845c-1.818-5.04746-.41019-9.63008,1.65754-10.03585l2.55743-14.59826,3.769-48.97326,20.84191-4.38983Z" transform="translate(-193.29471 -121.8316)" fill="#e6e6e6"/><path d="M864.8599,288.17428a38.389,38.389,0,0,1,4.61871,33.73881" transform="translate(-193.29471 -121.8316)" fill="#fd6584"/><path d="M981.61792,776.9784a1.18646,1.18646,0,0,1-1.19006,1.19h-280.29a1.19,1.19,0,1,1,0-2.38h280.29A1.18651,1.18651,0,0,1,981.61792,776.9784Z" transform="translate(-193.29471 -121.8316)" fill="#ccc"/></svg>