<svg data-name="Layer 1" xmlns="http://www.w3.org/2000/svg" width="474.15951" height="672.9498" viewBox="0 0 474.15951 672.9498" xmlns:xlink="http://www.w3.org/1999/xlink"><path d="M761.23682,150.07758H363.91346a1.01559,1.01559,0,0,1,0-2.03069H761.23682a1.01559,1.01559,0,0,1,0,2.03069Z" transform="translate(-362.92025 -113.5251)" fill="#cacaca"/><ellipse cx="23.34831" cy="11.16881" rx="10.92534" ry="11.16881" fill="#3f3d56"/><ellipse cx="61.09038" cy="11.16881" rx="10.92534" ry="11.16881" fill="#3f3d56"/><ellipse cx="98.83246" cy="11.16881" rx="10.92534" ry="11.16881" fill="#3f3d56"/><path d="M738.62364,120.35671H711.80691a2.03119,2.03119,0,0,1,0-4.06139h26.81673a2.03119,2.03119,0,0,1,0,4.06139Z" transform="translate(-362.92025 -113.5251)" fill="#3f3d56"/><path d="M738.62364,127.97181H711.80691a2.03119,2.03119,0,0,1,0-4.06139h26.81673a2.03119,2.03119,0,0,1,0,4.06139Z" transform="translate(-362.92025 -113.5251)" fill="#3f3d56"/><path d="M738.62364,135.58691H711.80691a2.03119,2.03119,0,0,1,0-4.06139h26.81673a2.03119,2.03119,0,0,1,0,4.06139Z" transform="translate(-362.92025 -113.5251)" fill="#3f3d56"/><path d="M704.14859,435.49451H421.00169a33.04039,33.04039,0,0,1-33.00252-33.0036V248.27564a33.03854,33.03854,0,0,1,33.00252-33.00144h283.1469a33.03854,33.03854,0,0,1,33.00252,33.00144V402.49091A33.04039,33.04039,0,0,1,704.14859,435.49451Z" transform="translate(-362.92025 -113.5251)" fill="#f2f2f2" style="isolation:isolate"/><circle cx="199.65489" cy="211.85926" r="53.64177" fill="#6c63ff"/><path d="M552.2584,350.47952a4.50007,4.50007,0,0,1-2.1709-.56543,4.44151,4.44151,0,0,1-2.333-3.94385V308.79642a4.49981,4.49981,0,0,1,6.9126-3.79834L589.93027,323.585a4.50009,4.50009,0,0,1,0,7.59668l-35.26318,18.58691A4.47852,4.47852,0,0,1,552.2584,350.47952Z" transform="translate(-362.92025 -113.5251)" fill="#fff"/><path d="M733.68425,527.22942a8.56625,8.56625,0,0,1-1.29413-13.07142l-13.564-27.25266,15.703,1.91217,10.47314,25.58643a8.61268,8.61268,0,0,1-11.31807,12.82548Z" transform="translate(-362.92025 -113.5251)" fill="#ffb8b8"/><path d="M678.69686,433.46009l10.28965-1.42119s.99351,15.51345,5.91544,17.86459,3.2627,2.73807,3.84309,5.22691a13.10386,13.10386,0,0,0,7.1058,7.965c3.89885,1.715,21.63322,44.83912,21.63322,44.83912l14.93306-3.48235a48.04264,48.04264,0,0,1-2.7085-11.6146c-.52463-6.00077-7.32544-20.16-9.56506-22.26189s-1.35425-5.8073-2.515-10.785-.355-.36213-2.2896-8.65827-23.68489-58.01506-24.59645-65.675-11.585-12.16881-11.585-12.16881l-8.29614,1.93464Z" transform="translate(-362.92025 -113.5251)" fill="#3f3d56"/><polygon points="275.419 345.607 258.78 423.717 349.603 416.871 322.419 340.607 275.419 345.607" fill="#ffb8b8"/><path d="M833.84506,711.71489a96.90174,96.90174,0,0,1-12.51,27.53c-12.48,18.87-30.34,33.3-49.97,44.85-1.36.81-2.74,1.6-4.12,2.38h-13.77l-.48-1.1v-.01l-.55994-1.27-.07007-.15-.03.15-.55005,2.38h-6.75989c-.55994-.79-1.11-1.58-1.65-2.38-.79-1.17-1.55-2.35-2.27-3.55a57.63475,57.63475,0,0,1-3.39991-6.52c-.12011-.25-.22009-.5-.32007-.75l.45-.49-1.86988-8.18,3.75989-.62-4.12-12.71c.15-.47.32006-.94.5-1.41,2.31005-5.85,6.65-10.22,11.8-13.89,5.3-3.79,11.47-6.83,17.1399-9.99,2.66015-1.49,5.28-3.06,7.83007-4.72v-.01q4.89-3.16508,9.49-6.77a1.42568,1.42568,0,0,0,.15-.11,1.06816,1.06816,0,0,0,.12-.1,140.90194,140.90194,0,0,0,34.31006-38.93.0098.0098,0,0,0,.01-.01c.29993-.48.57984-.96.85987-1.45v-.01a136.25566,136.25566,0,0,0,9.41-19.65v-.01c.20007-.5.38-1,.57-1.5q.39.66.75,1.32a.0098.0098,0,0,1,.01.01C838.25509,671.39488,839.17513,692.29491,833.84506,711.71489Z" transform="translate(-362.92025 -113.5251)" fill="#f0f0f0"/><path d="M828.555,654.04491a121.36532,121.36532,0,0,1-2.86988,27.54,118.54078,118.54078,0,0,1-3.3601,12.24,121.34532,121.34532,0,0,1-10.12989,22.6c-.23.39-.45007.77-.69006,1.15v.01a102.347,102.347,0,0,1-5.75,8.66,47.72179,47.72179,0,0,1-11.4,11.46,30.08891,30.08891,0,0,1-11.98,4.63c-.8.15-1.62.26-2.45.36-3.31006.39-6.73.54-10.01,1.24a21.84888,21.84888,0,0,0-4.82006,1.55c-5.28,2.45-8.25,7.58-9.55,13.06-.23.96-.40992,1.93-.54993,2.9-1.09,7.44995.11,15.19-.51,22.65-.06995.79-.16,1.59-.2699,2.38h-.74011l-.48-1.1v-.01c.04993-.42.09-.84.13-1.27a96.29209,96.29209,0,0,0,.09009-11.01c-.04-1.65-.07007-3.31-.05-4.97.02-1.33.06995-2.66.16993-3.98v-.01c.07006-.82.15-1.63.26-2.44a31.586,31.586,0,0,1,1.82006-7.25,18.15177,18.15177,0,0,1,10.31995-10.68,26.99231,26.99231,0,0,1,4.47009-1.25c3.34986-.64,6.80994-.8,10.17993-1.22.36-.04.72-.09,1.07007-.15.45-.07.8899-.15,1.32984-.23a28.66611,28.66611,0,0,0,12.16015-5.27,51.90346,51.90346,0,0,0,10.98-11.92c1.6399-2.35,3.2-4.75,4.64991-7.22a.0098.0098,0,0,1,.01-.01c.07006-.12.14-.23.21-.35l.01-.02a119.57137,119.57137,0,0,0,13.46008-34.17c.09-.44.19006-.88.28992-1.32a120.88772,120.88772,0,0,0,2.67-26.4v-.01c0-.42-.00989-.83-.0199-1.25-.02-.86,1.30994-1.05,1.32984-.19.01.42.02.84.01,1.26A.0098.0098,0,0,1,828.555,654.04491Z" transform="translate(-362.92025 -113.5251)" fill="#fff"/><path d="M810.93422,717.30383a18.01813,18.01813,0,0,0,22.69431-5.41582c.50869-.69934-.55416-1.52268-1.06353-.82241a16.68438,16.68438,0,0,1-21.12073,4.9947c-.76923-.39533-1.27488.85047-.51,1.24353Z" transform="translate(-362.92025 -113.5251)" fill="#fff"/><path d="M782.91347,741.30329a34.72851,34.72851,0,0,1,1.2295-25.27921c.35485-.78953-.88911-1.29863-1.24353-.51a36.12288,36.12288,0,0,0-1.22594,26.30791c.27856.82057,1.517.29746,1.24-.51865Z" transform="translate(-362.92025 -113.5251)" fill="#fff"/><path d="M824.94148,680.74759a10.19909,10.19909,0,0,1-7.02236-6.65924c-.268-.8237-1.50625-.29968-1.24.51865a11.42892,11.42892,0,0,0,7.75229,7.38412.69461.69461,0,0,0,.87679-.36674.67544.67544,0,0,0-.36675-.87679Z" transform="translate(-362.92025 -113.5251)" fill="#fff"/><path d="M772.87508,721.25493v.01a131.2464,131.2464,0,0,1-2.66992,21.24v.01c-.08008.48-.19006.95-.29,1.42a184.49574,184.49574,0,0,1-10.1101,31.61q-1.78493,4.32-3.74,8.55c-.35987.8-.73,1.59-1.10987,2.38h-1.4801l-.48-1.1v-.01l-.55994-1.27-.07007-.15-.03.15-.55005,2.38H737.48507l-2.77991-2.38-4.05-3.47,5.65992-6.18.93005-1.02.14-.15.45-.49-1.86988-8.18,3.75989-.62-4.12-12.71-1.95-6.01-.49-1.51-2.85009-8.79-8.59986,1.61005-1.40014-4.9a135.98973,135.98973,0,0,0,6.42-18.41c.01-.05.03-.09.04-.14a141.58293,141.58293,0,0,0,4.0199-51.96v-.01c-.05994-.56-.12989-1.13-.21-1.68v-.02a133.63133,133.63133,0,0,0-4.32-21.34c-.14-.53-.29993-1.05-.45007-1.57.46008.2.91.39,1.37011.59l.01.00995h.02c.73.32,1.46.66,2.16992,1.02,17.06006,8.29,29.61,23.85,36.74,41.79.02.05.04.09.06006.14a96.39382,96.39382,0,0,1,6.56995,29.43A114.86769,114.86769,0,0,1,772.87508,721.25493Z" transform="translate(-362.92025 -113.5251)" fill="#f0f0f0"/><path d="M746.92513,786.4749h-1.58007c-.5-.81-1.04-1.6-1.58-2.38q-1.29-1.81494-2.66-3.55c-.79-1-1.58-1.99-2.37-2.98-.81995-1.03-1.63-2.06-2.42-3.12l.93005-1.02c.15.2.29993.4.46008.6,2.55994,3.37,5.32984,6.61,7.7,10.07C745.93514,784.87492,746.44515,785.6649,746.92513,786.4749Z" transform="translate(-362.92025 -113.5251)" fill="#fff"/><path d="M725.48315,637.10371c.26.33.53.67.78,1.01q2.925,3.795,5.53,7.83a117.99043,117.99043,0,0,1,8.22,14.85c.19.4.38.81.56,1.22a119.26357,119.26357,0,0,1,9.84,35.44c.02.12.03.23.04.35q.49493,4.29.64,8.61a51.78271,51.78271,0,0,1-1.59,16.12c-.2.69-.42,1.37-.66,2.03a27.34583,27.34583,0,0,1-2.25,4.65,27.92323,27.92323,0,0,1-2.14,3.09c-.47.6-.96,1.19-1.48,1.76-.3.33-.61.66-.92.99-.26.25-.51.51-.77.76-2.7,2.62-5.68,5.05-8.12,7.94l.49,1.51c2.35-2.98,5.37994-5.45,8.11-8.05a37.89691,37.89691,0,0,0,4.66-5.28c.18-.26.37-.52.54-.79a26.749,26.749,0,0,0,2.38995-4.29c.34-.75.65-1.52.93-2.32a47.89241,47.89241,0,0,0,2.2-16,103.41481,103.41481,0,0,0-.62-10.39c-.04-.44995-.09-.89-.15-1.34a121.6383,121.6383,0,0,0-5.52-24.14,122.65961,122.65961,0,0,0-13.76-28.18q-2.475-3.765-5.25-7.35c-.24-.33-.49-.65-.75-.98C725.9032,635.4737,724.95319,636.42372,725.48315,637.10371Z" transform="translate(-362.92025 -113.5251)" fill="#fff"/><path d="M751.23715,698.27008a18.01811,18.01811,0,0,0,14.85943-17.98776.67262.67262,0,0,0-1.34431-.01634,16.68437,16.68437,0,0,1-13.85657,16.70413c-.8522.14748-.50588,1.44661.34145,1.3Z" transform="translate(-362.92025 -113.5251)" fill="#fff"/><path d="M743.31348,734.30273a34.72848,34.72848,0,0,1-14.23814-20.92427c-.192-.844-1.49177-.50157-1.3.34145a36.12285,36.12285,0,0,0,14.86034,21.74348c.71645.48747,1.39034-.67584.67778-1.16066Z" transform="translate(-362.92025 -113.5251)" fill="#fff"/><path d="M740.41178,660.64863a10.1991,10.1991,0,0,1-9.61629-1.08908c-.70992-.49631-1.38308.66759-.67778,1.16066a11.42893,11.42893,0,0,0,10.63552,1.2284.69462.69462,0,0,0,.47927-.82071.67544.67544,0,0,0-.82072-.47927Z" transform="translate(-362.92025 -113.5251)" fill="#fff"/><polygon points="288.077 652.388 277.875 652.388 273.022 613.036 288.079 613.037 288.077 652.388" fill="#ffb8b8"/><path d="M656.48612,785.2849h-7.23935l-1.2922-6.83481-3.30949,6.83481h-19.2005a4.31609,4.31609,0,0,1-2.45254-7.86784L638.325,766.82757v-6.90975l16.12758.9626Z" transform="translate(-362.92025 -113.5251)" fill="#2f2e41"/><polygon points="384.502 647.313 374.532 649.475 361.446 612.047 376.161 608.855 384.502 647.313" fill="#ffb8b8"/><path d="M756.89306,778.60534l-7.07479,1.53477-2.71183-6.40549-1.78526,7.38107-18.764,4.07057a4.3161,4.3161,0,0,1-4.06481-7.169l12.7394-13.59941-1.4649-6.75269,15.96506-2.47839Z" transform="translate(-362.92025 -113.5251)" fill="#2f2e41"/><path d="M819.27511,785.2849a1.18647,1.18647,0,0,1-1.19006,1.19h-280.29a1.19,1.19,0,0,1,0-2.38h280.29A1.18651,1.18651,0,0,1,819.27511,785.2849Z" transform="translate(-362.92025 -113.5251)" fill="#ccc"/><path d="M619.382,590.132c7.16,39.35,4.94995,14.34,4.94995,14.34s-5.37,6.26-1.79,9.84,0,10.73,0,10.73l12.797,104.09038,2,9h14l1-12,6.393-58.19042s3.58-7.16,1.79-8.95c-1.79-1.79,1.79-12.52,1.79-12.52l4.47-84.96,16.73,52.01s-2.68994,3.58,0,6.26c2.68,2.68,19.04,57.1,19.04,57.1l19.787,47.25042,1,1,5,13,13-6L733.622,665.512l-.32-1.43-.34-1.51s1.79-4.47-.88995-7.16a6.98826,6.98826,0,0,1-1.79-6.26,2.44163,2.44163,0,0,0,.24-.3,3.71235,3.71235,0,0,0,.64-1.46c.24-1.12.03-2.69-1.78-4.5a7.63588,7.63588,0,0,1-1.27-1.82c-2.72-5.15-4.09-16.06-4.09-16.06s-2.42-86.41-10.34-99.61c-.42-.69-18.903-47.99958-19.343-48.2696-8.94-5.36-61,2-61,2S617.482,524.572,617.292,525.752C616.26192,532.382,613.312,556.752,619.382,590.132Z" transform="translate(-362.92025 -113.5251)" fill="#2f2e41"/><path d="M578.64567,335.8004a8.56626,8.56626,0,0,0,3.88279,12.54833l-1.91808,30.38108,13.72854-7.85933-.28329-27.64547a8.61268,8.61268,0,0,0-15.41-7.42461Z" transform="translate(-362.92025 -113.5251)" fill="#ffb8b8"/><path d="M631.68031,385.13446s7.35831-10.96385,21.84016-25.4457c7.66686-2.55562,20.95087-1.06612,25.55621,0,21.29684,28.11183,22.63716,26.24376,28.18079,41.95075,1.43754,4.073,2.15631,7.98632,1.5174,11.18084-2.55562,12.77811-20.459,44.34049-19.60718,47.748s6.815,7.66686.85188,7.66686-55.3844-5.54719-53.68065-8.10281S631.68031,385.13446,631.68031,385.13446Z" transform="translate(-362.92025 -113.5251)" fill="#3f3d56"/><circle cx="294.77585" cy="210.59304" r="24.66737" fill="#ffb8b8"/><path d="M661.97515,376.77806s-20.44317-18.14189-46.2767,18.60622l-19.75,9.5-.60953-22.75189,3.48928-4.55408-1.48928-24.44592-19.26929,3.23689L576.64034,372.245l-3.30142,6.88737,2.15539,5.84193-2.27128,25.228,1.11589,8.93006s1.35374,11.40628,9.33014,16.15565a23.63951,23.63951,0,0,0,6.84756,2.7585c4.72643,1.08064,10.43632.832,17.21185-1.87429a379.0787,379.0787,0,0,0,41.13644-19.03986Z" transform="translate(-362.92025 -113.5251)" fill="#3f3d56"/><path d="M712.919,376.99237q7.83-2.775,15.65991-5.56a15.76324,15.76324,0,0,0-3.39-3.99c-4.97-4.15-11.83-4.9-18.13995-6.3-6.32-1.4-13.18-4.27-15.49-10.31-2.4-6.28,1.08-13.06,3.1-19.46,2.83-8.93,2.77-18.9-1.02-27.46-3.79-8.56-11.49-15.5-20.63-17.54-9.13995-2.03-19.47,1.28-25.09,8.76a15.47065,15.47065,0,0,0-18.62,8.62c-1.31,3.28-1.35,7.23.6,10.18s6.12,4.46,9.26,2.82l-1.82-4.62c5.63,1.91,9.29,12.09,8.53,17.99-.75,5.89-4.19,11.05-7.68006,15.86-3.49,4.81-7.21,9.67-8.71,15.42-2.16,8.27.76,17.31,6.16,23.94s13.01,11.13,20.89,14.44a96.83986,96.83986,0,0,0,18.3,5.64c-1.12-2.18-2.23-4.36-3.35-6.54l13.29,8.04c2.57.25,5.16.4,7.75.45,7.54.13,15.22992-.66,22.13007-3.67,6.90991-3.02,12.98-8.49006,15.48-15.6a20.21771,20.21771,0,0,0,1.11987-7.16Q722.084,378.96238,712.919,376.99237Z" transform="translate(-362.92025 -113.5251)" fill="#2f2e41"/></svg>