<?xml version="1.0" encoding="utf-8"?>
<!-- Generator: Adobe Illustrator 21.1.0, SVG Export Plug-In . SVG Version: 6.00 Build 0)  -->
<svg version="1.1" xmlns="http://www.w3.org/2000/svg" xmlns:xlink="http://www.w3.org/1999/xlink" x="0px" y="0px"
	 viewBox="0 0 1040 500" style="enable-background:new 0 0 1040 500;" xml:space="preserve">
<style type="text/css">
	.st0{opacity:0;fill:#F2F2F2;}
	.st1{fill:#1C1C1C;}
	.st2{fill:#2479E0;}
	.st3{opacity:0;fill:#1C1C1C;}
	.st4{fill:#FFFFFF;}
	.st5{opacity:0;fill:#2A81D8;}
</style>
<g id="logo_x5F_black">
</g>
<g id="logo_x5F_blue">
</g>
<g id="logo_x5F_white">
</g>
<g id="exo_x5F_white">
</g>
<g id="exo_x5F_black">
</g>
<g id="exo_x5F_blue_1_">
	<rect class="st5" width="1040" height="500"/>
	<path class="st1" d="M251.3,290.4h-47.7v-80.9h47.8v12.4h-32.5v22h22.5v12.2h-22.5v22h32.5V290.4z"/>
	<path class="st1" d="M286.5,290.4h-18.1l25.7-40.9l-24.5-40h17.6l15.5,26.5l15-26.5h18.4l-24.5,40l26.5,40.9h-18l-17.2-28
		L286.5,290.4z"/>
	<path class="st1" d="M429.4,250.1c0,12.5-3.5,22.5-10.4,30.1c-6.9,7.6-16.2,11.4-27.8,11.4c-11.6,0-20.9-3.8-27.8-11.4
		c-7-7.6-10.4-17.6-10.4-30.1c0-12.6,3.5-22.6,10.4-30.2c6.9-7.6,16.2-11.4,27.8-11.4c11.8,0,21.1,3.8,28,11.3
		C426,227.3,429.4,237.4,429.4,250.1z M369.2,250.1c0,8.5,2,15.2,6,20.2c4,5,9.4,7.4,16.1,7.4c6.8,0,12.2-2.5,16.1-7.4
		c3.9-4.9,5.9-11.7,5.9-20.2c0-8.6-2-15.3-5.9-20.3c-3.9-5-9.3-7.4-16.2-7.4c-6.8,0-12.2,2.5-16.1,7.4
		C371.1,234.7,369.2,241.5,369.2,250.1z"/>
	<path class="st1" d="M486.4,258.2h-22.2v32.3H449v-80.9h47.4v12.4h-32.2v23.9h22.2V258.2z"/>
	<path class="st1" d="M530,290.4h-15.1v-80.9h25c9.2,0,16.4,2.3,21.7,7c5.2,4.6,7.9,10.8,7.9,18.6c-0.1,5.8-1.5,10.6-4.2,14.6
		c-2.7,4-6.4,6.9-11.2,8.8l20.8,31.9h-18.1l-18.4-29.5H530V290.4z M539.8,222H530v26.4h10.1c4.6,0,8.1-1.2,10.4-3.5
		c2.3-2.4,3.5-5.7,3.5-9.9c0-4.2-1.2-7.4-3.7-9.6C547.9,223.2,544.4,222,539.8,222z"/>
	<path class="st1" d="M602.3,290.4h-15.8l27.4-80.9h19.6l27.4,80.9h-16.3l-5.8-18.4h-30.6L602.3,290.4z M613.1,256.2l-1.1,3.5h22.8
		l-1.1-3.6c-2.7-8.6-4.9-15.9-6.7-21.8c-1.7-5.9-2.8-9.6-3.2-11.1l-0.5-2.4C622.7,224.8,619.3,236.6,613.1,256.2z"/>
	<path class="st1" d="M692.1,290.4H677l6.5-80.9h17.3l11,29.4c1.9,5,3.7,9.9,5.4,14.8c1.7,4.9,2.9,8.6,3.6,11l1.1,3.7
		c2.5-8.3,5.9-18.2,10.3-29.5l11.3-29.4h17.3l7.9,80.9h-15.1l-2.9-31.6l-2.2-28.3c-2.9,8.2-6.3,17.7-10.3,28.3l-11.3,30.4h-10.3
		l-11-30.4l-9.5-28c0,3.9-0.5,13.2-1.6,28L692.1,290.4z"/>
	<path class="st1" d="M837.8,290.4H790v-80.9h47.8v12.4h-32.5v22h22.5v12.2h-22.5v22h32.5V290.4z"/>
	<polygon class="st2" points="988.7,449.5 789.7,449.5 789.7,409.5 948.7,409.5 948.7,90.5 789.7,90.5 789.7,50.5 988.7,50.5 	"/>
	<polygon class="st1" points="251.4,409.5 51.3,409.5 51.3,90.5 251.4,90.5 251.4,130.5 91.3,130.5 91.3,369.5 251.4,369.5 	"/>
</g>
</svg>
